# xmcd CD database file
#
# Track frame offsets:
#	150
#	21650
#	36364
#	52813
#	67937
#	84346
#	102908
#	114881
#	135441
#	149574
#	164436
#	181450
#	195246
#
# Disc length: 2799 seconds
#
# Revision: 0
# Processed by: cddbd v1.5.2PL0 Copyright (c) Steve Scherf et al.
# Submitted via: CDex 1.70beta2
#
DISCID=aa0aed0d
DTITLE=Lorena Tassinari - Abalayam
DYEAR=2006
DGENRE=New Age
TTITLE0=Yum-Kin
TTITLE1=Noche De Estrellas
TTITLE2=Guardianes Mayas
TTITLE3=U Kakil Yakunah
TTITLE4=Lirios Blancos
TTITLE5=Ciru-Huá
TTITLE6=Cena Para Dos
TTITLE7=Santa María, Reina De Los Ángeles
TTITLE8=Sharatán
TTITLE9=Vis La Nuit
TTITLE10=Luna Creciente
TTITLE11=Besos Sabor A Miel
TTITLE12=Noche De Estrellas (Vers. Intrum.)
EXTD=YEAR: 2006
EXTT0=
EXTT1=
EXTT2=
EXTT3=
EXTT4=
EXTT5=
EXTT6=
EXTT7=
EXTT8=
EXTT9=
EXTT10=
EXTT11=
EXTT12=
PLAYORDER=
